<svg width="13" height="13" viewBox="0 0 13 13" fill="none" xmlns="http://www.w3.org/2000/svg">
<path d="M5.63332 1.29999C3.24522 1.29999 1.29999 3.24522 1.29999 5.63332C1.29999 8.02142 3.24522 9.96665 5.63332 9.96665C6.67181 9.96665 7.62552 9.59788 8.37297 8.98573L10.9603 11.573C11.0002 11.6146 11.048 11.6478 11.101 11.6707C11.1539 11.6936 11.2108 11.7057 11.2685 11.7062C11.3261 11.7068 11.3833 11.6959 11.4367 11.6741C11.4901 11.6523 11.5386 11.6201 11.5793 11.5793C11.6201 11.5386 11.6523 11.4901 11.6741 11.4367C11.6959 11.3833 11.7068 11.3261 11.7062 11.2685C11.7057 11.2108 11.6936 11.1539 11.6707 11.101C11.6478 11.048 11.6146 11.0002 11.573 10.9603L8.98573 8.37297C9.59788 7.62552 9.96665 6.67181 9.96665 5.63332C9.96665 3.24522 8.02142 1.29999 5.63332 1.29999ZM5.63332 2.16665C7.55304 2.16665 9.09999 3.7136 9.09999 5.63332C9.09999 7.55304 7.55304 9.09999 5.63332 9.09999C3.7136 9.09999 2.16665 7.55304 2.16665 5.63332C2.16665 3.7136 3.7136 2.16665 5.63332 2.16665Z" fill="white"/>
</svg>
