<svg width="1440" height="313" viewBox="0 0 1440 313" fill="none" xmlns="http://www.w3.org/2000/svg">
<g clip-path="url(#clip0_308_306)">
<path d="M1440 182.483L1424.99 185.862C1409.97 189.241 1379.94 196 1349.92 196C1319.89 196 1289.86 189.241 1259.83 168.966C1229.81 148.69 1199.78 114.897 1169.75 91.2414C1139.72 67.5862 1109.69 54.069 1079.67 47.3103C1049.64 40.5517 1019.61 40.5517 989.583 57.4483C959.556 74.3448 929.528 108.138 899.5 131.793C869.472 155.448 839.444 168.966 809.417 148.69C779.389 128.414 749.361 74.3448 719.333 47.3103C689.306 20.2759 659.278 20.2759 629.25 33.7931C599.222 47.3103 569.194 74.3448 539.167 87.8621C509.139 101.379 479.111 101.379 449.083 91.2414C419.056 81.1034 389.028 60.8276 359 50.6897C328.972 40.5517 298.944 40.5517 268.917 50.6897C238.889 60.8276 208.861 81.1034 178.833 108.138C148.806 135.172 118.778 168.966 88.75 179.103C58.7223 189.241 28.6945 175.724 -1.33329 172.345C-31.3611 168.966 -61.3888 175.724 -91.4166 155.448C-121.444 135.172 -151.472 87.8621 -181.5 64.2069C-211.528 40.5517 -241.556 40.5517 -271.583 60.8276C-301.611 81.1034 -331.639 121.655 -361.667 145.31C-391.694 168.966 -421.722 175.724 -451.75 168.966C-481.778 162.207 -511.806 141.931 -541.833 118.276C-571.861 94.6207 -601.889 67.5862 -631.917 54.069C-661.944 40.5517 -691.972 40.5517 -706.986 40.5517H-722V2.02656e-06H-706.986C-691.972 2.02656e-06 -661.944 2.02656e-06 -631.917 2.02656e-06C-601.889 2.02656e-06 -571.861 2.02656e-06 -541.833 2.02656e-06C-511.806 2.02656e-06 -481.778 2.02656e-06 -451.75 2.02656e-06C-421.722 2.02656e-06 -391.694 2.02656e-06 -361.667 2.02656e-06C-331.639 2.02656e-06 -301.611 2.02656e-06 -271.583 2.02656e-06C-241.556 2.02656e-06 -211.528 2.02656e-06 -181.5 2.02656e-06C-151.472 2.02656e-06 -121.444 2.02656e-06 -91.4166 2.02656e-06C-61.3888 2.02656e-06 -31.3611 2.02656e-06 -1.33329 2.02656e-06C28.6945 2.02656e-06 58.7223 2.02656e-06 88.75 2.02656e-06C118.778 2.02656e-06 148.806 2.02656e-06 178.833 2.02656e-06C208.861 2.02656e-06 238.889 2.02656e-06 268.917 2.02656e-06C298.944 2.02656e-06 328.972 2.02656e-06 359 2.02656e-06C389.028 2.02656e-06 419.056 2.02656e-06 449.083 2.02656e-06C479.111 2.02656e-06 509.139 2.02656e-06 539.167 2.02656e-06C569.194 2.02656e-06 599.222 2.02656e-06 629.25 2.02656e-06C659.278 2.02656e-06 689.306 2.02656e-06 719.333 2.02656e-06C749.361 2.02656e-06 779.389 2.02656e-06 809.417 2.02656e-06C839.444 2.02656e-06 869.472 2.02656e-06 899.5 2.02656e-06C929.528 2.02656e-06 959.556 2.02656e-06 989.583 2.02656e-06C1019.61 2.02656e-06 1049.64 2.02656e-06 1079.67 2.02656e-06C1109.69 2.02656e-06 1139.72 2.02656e-06 1169.75 2.02656e-06C1199.78 2.02656e-06 1229.81 2.02656e-06 1259.83 2.02656e-06C1289.86 2.02656e-06 1319.89 2.02656e-06 1349.92 2.02656e-06C1379.94 2.02656e-06 1409.97 2.02656e-06 1424.99 2.02656e-06H1440V182.483Z" fill="url(#paint0_linear_308_306)"/>
</g>
<defs>
<linearGradient id="paint0_linear_308_306" x1="1440" y1="0" x2="1440" y2="196" gradientUnits="userSpaceOnUse">
<stop stop-color="#28252A"/>
<stop offset="1" stop-color="#28252A"/>
</linearGradient>
<clipPath id="clip0_308_306">
<rect width="1440" height="313" fill="white" transform="matrix(-1 0 0 -1 1440 313)"/>
</clipPath>
</defs>
</svg>
