<svg width="1440" height="227" viewBox="0 0 1440 227" fill="none" xmlns="http://www.w3.org/2000/svg">
<g clip-path="url(#clip0_308_317)">
<path d="M0 22.7L18.5 18.9428C36.9 14.8724 74 7.8276 111 7.59277C147.7 7.8276 185 14.8724 222 37.8073C258.5 60.2724 295 98.6276 332 124.85C369.2 151.072 406 166.728 443 174.007C480 181.6 517 181.6 554 162.657C590.8 144.028 628 105.672 665 79.45C701.5 53.2276 738 37.5724 775 60.5073C812.3 82.9724 849 144.028 886 174.007C923.1 204.3 960 204.3 997 189.193C1033.8 173.772 1071 144.028 1108 128.607C1144.6 113.5 1182 113.5 1218 124.85C1255.4 136.2 1292 158.9 1329 170.25C1366.2 181.6 1403 181.6 1440 170.25C1476.9 158.9 1514 136.2 1551 105.907C1587.7 75.9276 1625 37.5724 1662 26.4573C1698.5 14.8724 1735 30.5276 1772 34.05C1809.2 37.5724 1846 30.5276 1883 52.9928C1920 75.9276 1957 128.372 1994 155.143C2030.8 181.6 2068 181.6 2105 158.9C2141.5 136.2 2178 90.8 2215 64.3428C2252.3 37.5724 2289 30.5276 2326 37.8073C2363.1 45.4 2400 68.1 2437 94.5573C2473.8 121.328 2511 151.072 2548 166.493C2584.6 181.6 2622 181.6 2640 181.6H2658.5V227H2640C2621.5 227 2585 227 2548 227C2510.8 227 2474 227 2437 227C2400 227 2363 227 2326 227C2289.2 227 2252 227 2215 227C2178.5 227 2142 227 2105 227C2067.7 227 2031 227 1994 227C1956.9 227 1920 227 1883 227C1846.2 227 1809 227 1772 227C1735.4 227 1698 227 1662 227C1624.6 227 1588 227 1551 227C1513.8 227 1477 227 1440 227C1403.1 227 1366 227 1329 227C1292.3 227 1255 227 1218 227C1181.5 227 1145 227 1108 227C1070.8 227 1034 227 997 227C960 227 923 227 886 227C849.2 227 812 227 775 227C738.5 227 702 227 665 227C627.7 227 591 227 554 227C516.9 227 480 227 443 227C406.2 227 369 227 332 227C295.4 227 258 227 222 227C184.6 227 148 227 111 227C73.8 227 37 227 18 227H0V22.7Z" fill="url(#paint0_linear_308_317)"/>
</g>
<defs>
<linearGradient id="paint0_linear_308_317" x1="0" y1="227" x2="0" y2="7.59277" gradientUnits="userSpaceOnUse">
<stop stop-color="#715AFF"/>
<stop offset="1" stop-color="#715AFF"/>
</linearGradient>
<clipPath id="clip0_308_317">
<rect width="1440" height="227" fill="white"/>
</clipPath>
</defs>
</svg>
