<svg width="1440" height="313" viewBox="0 0 1440 313" fill="none" xmlns="http://www.w3.org/2000/svg">
<g opacity="0.7" clip-path="url(#clip0_308_306)">
<path d="M1440 166.483L1424.99 169.862C1409.97 173.241 1379.94 180 1349.92 180C1319.89 180 1289.86 173.241 1259.83 152.966C1229.81 132.69 1199.78 98.8966 1169.75 75.2414C1139.72 51.5862 1109.69 38.069 1079.67 31.3103C1049.64 24.5517 1019.61 24.5517 989.583 41.4483C959.556 58.3448 929.528 92.1379 899.5 115.793C869.472 139.448 839.444 152.966 809.417 132.69C779.389 112.414 749.361 58.3448 719.333 31.3103C689.306 4.27586 659.278 4.27586 629.25 17.7931C599.222 31.3103 569.194 58.3448 539.167 71.8621C509.139 85.3793 479.111 85.3793 449.083 75.2414C419.056 65.1034 389.028 44.8276 359 34.6897C328.972 24.5517 298.944 24.5517 268.917 34.6897C238.889 44.8276 208.861 65.1034 178.833 92.1379C148.806 119.172 118.778 152.966 88.75 163.103C58.7223 173.241 28.6945 159.724 -1.33325 156.345C-31.3611 152.966 -61.3888 159.724 -91.4166 139.448C-121.444 119.172 -151.472 71.8621 -181.5 48.2069C-211.528 24.5517 -241.556 24.5517 -271.583 44.8276C-301.611 65.1034 -331.639 105.655 -361.667 129.31C-391.694 152.966 -421.722 159.724 -451.75 152.966C-481.778 146.207 -511.806 125.931 -541.833 102.276C-571.861 78.6207 -601.889 51.5862 -631.917 38.069C-661.944 24.5517 -691.972 24.5517 -706.986 24.5517H-722V-16H-706.986C-691.972 -16 -661.944 -16 -631.917 -16C-601.889 -16 -571.861 -16 -541.833 -16C-511.806 -16 -481.778 -16 -451.75 -16C-421.722 -16 -391.694 -16 -361.667 -16C-331.639 -16 -301.611 -16 -271.583 -16C-241.556 -16 -211.528 -16 -181.5 -16C-151.472 -16 -121.444 -16 -91.4166 -16C-61.3888 -16 -31.3611 -16 -1.33325 -16C28.6945 -16 58.7223 -16 88.75 -16C118.778 -16 148.806 -16 178.833 -16C208.861 -16 238.889 -16 268.917 -16C298.944 -16 328.972 -16 359 -16C389.028 -16 419.056 -16 449.083 -16C479.111 -16 509.139 -16 539.167 -16C569.194 -16 599.222 -16 629.25 -16C659.278 -16 689.306 -16 719.333 -16C749.361 -16 779.389 -16 809.417 -16C839.444 -16 869.472 -16 899.5 -16C929.528 -16 959.556 -16 989.583 -16C1019.61 -16 1049.64 -16 1079.67 -16C1109.69 -16 1139.72 -16 1169.75 -16C1199.78 -16 1229.81 -16 1259.83 -16C1289.86 -16 1319.89 -16 1349.92 -16C1379.94 -16 1409.97 -16 1424.99 -16H1440V166.483Z" fill="url(#paint0_linear_308_306)"/>
</g>
<defs>
<linearGradient id="paint0_linear_308_306" x1="1440" y1="-16" x2="1440" y2="180" gradientUnits="userSpaceOnUse">
<stop stop-color="#1F1E1E"/>
<stop offset="1" stop-color="#1F1E1E"/>
</linearGradient>
<clipPath id="clip0_308_306">
<rect width="1440" height="313" fill="white" transform="matrix(-1 0 0 -1 1440 313)"/>
</clipPath>
</defs>
</svg>
